<svg xmlns="http://www.w3.org/2000/svg" xmlns:xlink="http://www.w3.org/1999/xlink" width="1920" zoomAndPan="magnify" viewBox="0 0 1440 809.999993" height="1080" preserveAspectRatio="xMidYMid meet" version="1.0"><defs><g/><clipPath id="8197bc2629"><path d="M 391.207031 245.25 L 679.957031 245.25 L 679.957031 569 L 391.207031 569 Z M 391.207031 245.25 " clip-rule="nonzero"/></clipPath><clipPath id="75b9366848"><path d="M 521.582031 374.476562 L 649 374.476562 L 649 513.976562 L 521.582031 513.976562 Z M 521.582031 374.476562 " clip-rule="nonzero"/></clipPath></defs><g clip-path="url(#8197bc2629)"><path fill="#000000" d="M 552.929688 568.976562 C 463.753906 568.976562 391.207031 496.425781 391.207031 407.246094 C 391.207031 318.074219 463.753906 245.523438 552.929688 245.523438 C 597.875 245.523438 641.160156 264.460938 671.683594 297.472656 L 679.957031 306.417969 L 617.335938 364.332031 L 609.054688 355.386719 C 594.414062 339.546875 574.476562 330.824219 552.929688 330.824219 C 510.785156 330.824219 476.503906 365.109375 476.503906 407.246094 C 476.503906 430.042969 486.617188 451.496094 504.25 466.109375 L 488.691406 484.875 C 465.460938 465.613281 452.132812 437.324219 452.132812 407.246094 C 452.132812 351.667969 497.351562 306.453125 552.929688 306.453125 C 577.246094 306.453125 599.996094 314.867188 618.152344 330.375 L 645.117188 305.441406 C 619.992188 282.726562 587.027344 269.898438 552.929688 269.898438 C 477.195312 269.898438 415.578125 331.507812 415.578125 407.246094 C 415.578125 482.984375 477.195312 544.601562 552.929688 544.601562 C 581.84375 544.601562 609.515625 535.714844 632.945312 518.894531 C 639.222656 514.390625 645.171875 509.300781 650.640625 503.769531 L 667.980469 520.890625 C 661.550781 527.402344 654.546875 533.394531 647.152344 538.691406 C 619.558594 558.503906 586.980469 568.976562 552.929688 568.976562 " fill-opacity="1" fill-rule="nonzero"/></g><g clip-path="url(#75b9366848)"><path fill="#000000" d="M 640.0625 407.78125 C 634.550781 401 627.710938 395.609375 619.546875 391.597656 C 611.378906 387.589844 602.535156 385.585938 593.011719 385.585938 C 584.730469 385.585938 576.917969 387.121094 569.574219 390.183594 C 562.265625 393.25 555.867188 397.464844 550.414062 402.769531 C 544.960938 408.105469 540.65625 414.292969 537.53125 421.367188 C 534.40625 428.441406 532.8125 435.988281 532.8125 444.003906 C 532.8125 452.019531 534.375 459.566406 537.53125 466.640625 C 540.65625 473.714844 544.960938 479.902344 550.414062 485.148438 C 555.867188 490.425781 562.265625 494.582031 569.605469 497.644531 C 576.945312 500.710938 584.757812 502.246094 593.042969 502.246094 C 602.566406 502.246094 611.410156 500.238281 619.574219 496.230469 C 627.742188 492.222656 634.550781 486.828125 640.09375 480.050781 L 648.761719 486.828125 L 648.9375 486.828125 C 642.421875 495.113281 634.316406 501.714844 624.675781 506.605469 C 615.003906 511.527344 604.480469 513.976562 593.070312 513.976562 C 583.285156 513.976562 574.058594 512.117188 565.417969 508.433594 C 556.75 504.75 549.203125 499.679688 542.75 493.285156 C 536.292969 486.886719 531.164062 479.460938 527.417969 471.003906 C 523.613281 462.601562 521.726562 453.613281 521.726562 444.0625 C 521.726562 434.542969 523.613281 425.523438 527.390625 417.066406 C 531.164062 408.605469 536.261719 401.207031 542.71875 394.871094 C 549.175781 388.535156 556.722656 383.554688 565.390625 379.925781 C 574.027344 376.300781 583.253906 374.476562 593.042969 374.476562 C 604.453125 374.476562 615.003906 376.863281 624.644531 381.636719 C 634.316406 386.410156 642.394531 392.867188 648.90625 401 L 648.730469 401.179688 Z M 592.984375 406.660156 C 587.707031 406.660156 582.722656 407.632812 578.035156 409.578125 C 573.320312 411.523438 569.222656 414.175781 565.714844 417.566406 C 562.207031 420.957031 559.433594 424.933594 557.429688 429.503906 C 555.425781 434.070312 554.421875 438.933594 554.421875 444.09375 C 554.421875 449.25 555.425781 454.054688 557.429688 458.59375 C 559.433594 463.101562 562.207031 467.050781 565.714844 470.441406 C 569.222656 473.832031 573.320312 476.484375 578.035156 478.429688 C 582.753906 480.375 587.734375 481.347656 592.984375 481.347656 C 599.117188 481.347656 604.804688 480.050781 610.023438 477.488281 C 615.242188 474.921875 619.574219 471.503906 623.113281 467.230469 L 631.957031 474.007812 C 627.445312 479.667969 621.785156 484.148438 615.035156 487.449219 C 608.253906 490.777344 600.914062 492.429688 593.011719 492.429688 C 586.113281 492.429688 579.65625 491.164062 573.644531 488.65625 C 567.628906 486.152344 562.351562 482.703125 557.84375 478.3125 C 553.273438 473.980469 549.734375 468.820312 547.171875 462.925781 C 544.605469 457.03125 543.308594 450.753906 543.308594 444.121094 C 543.308594 437.492188 544.605469 431.210938 547.171875 425.316406 C 549.734375 419.421875 553.300781 414.292969 557.8125 409.902344 C 562.324219 405.511719 567.601562 402.03125 573.613281 399.46875 C 579.628906 396.90625 586.085938 395.609375 592.984375 395.609375 C 600.882812 395.609375 608.226562 397.257812 615.003906 400.589844 C 621.785156 403.917969 627.417969 408.398438 631.925781 414.027344 L 623.082031 420.984375 C 619.457031 416.59375 615.0625 413.117188 609.90625 410.550781 C 604.777344 407.957031 599.117188 406.660156 592.984375 406.660156 Z M 592.984375 406.660156 " fill-opacity="1" fill-rule="nonzero"/></g><g fill="#000000" fill-opacity="1"><g transform="translate(665.965509, 369.20001)"><g><path d="M 27.515625 -32.46875 C 26.285156 -32.289062 25.671875 -31.863281 25.671875 -31.1875 C 25.671875 -31 25.757812 -30.722656 25.9375 -30.359375 C 26.125 -29.992188 26.25 -29.71875 26.3125 -29.53125 L 38.828125 -2.484375 C 39.128906 -1.929688 39.382812 -1.546875 39.59375 -1.328125 C 39.8125 -1.117188 40.226562 -0.953125 40.84375 -0.828125 L 40.84375 0 L 30.734375 0 L 30.734375 -0.828125 C 31.585938 -1.128906 32.015625 -1.4375 32.015625 -1.75 C 32.015625 -1.9375 31.953125 -2.179688 31.828125 -2.484375 L 28.421875 -9.75 L 12.703125 -9.75 L 9.390625 -2.671875 C 9.140625 -2.179688 9.015625 -1.84375 9.015625 -1.65625 C 9.015625 -1.40625 9.503906 -1.128906 10.484375 -0.828125 L 10.484375 0 L 1.28125 0 L 1.28125 -0.828125 C 1.957031 -1.078125 2.414062 -1.289062 2.65625 -1.46875 C 2.90625 -1.65625 3.15625 -2.054688 3.40625 -2.671875 L 16.09375 -29.4375 C 16.21875 -29.6875 16.375 -30.007812 16.5625 -30.40625 C 16.75 -30.800781 16.84375 -31.0625 16.84375 -31.1875 C 16.84375 -31.738281 16.195312 -32.164062 14.90625 -32.46875 L 14.90625 -33.296875 L 27.515625 -33.296875 Z M 26.5 -14.078125 L 20.703125 -26.953125 L 14.8125 -14.078125 Z M 26.5 -14.078125 "/></g></g></g><g fill="#000000" fill-opacity="1"><g transform="translate(708.09796, 369.20001)"><g><path d="M 39.75 -23.640625 C 39.75 -20.515625 38.566406 -18.078125 36.203125 -16.328125 C 33.835938 -14.578125 30.878906 -13.703125 27.328125 -13.703125 L 13.609375 -13.703125 L 13.609375 -2.484375 C 13.609375 -2.054688 13.773438 -1.703125 14.109375 -1.421875 C 14.453125 -1.148438 15.023438 -0.953125 15.828125 -0.828125 L 15.828125 0 L 4.6875 0 L 4.6875 -0.828125 C 6.164062 -1.191406 6.90625 -1.679688 6.90625 -2.296875 L 6.90625 -30.734375 C 6.90625 -31.222656 6.71875 -31.601562 6.34375 -31.875 C 5.976562 -32.15625 5.425781 -32.351562 4.6875 -32.46875 L 4.6875 -33.296875 L 27.78125 -33.296875 C 31.28125 -33.296875 34.148438 -32.453125 36.390625 -30.765625 C 38.628906 -29.085938 39.75 -26.710938 39.75 -23.640625 Z M 33.03125 -23.453125 C 33.03125 -25.359375 32.25 -26.691406 30.6875 -27.453125 C 29.125 -28.222656 27.296875 -28.609375 25.203125 -28.609375 L 13.609375 -28.609375 L 13.609375 -18.40625 L 26.125 -18.40625 C 28.394531 -18.40625 30.113281 -18.863281 31.28125 -19.78125 C 32.445312 -20.695312 33.03125 -21.921875 33.03125 -23.453125 Z M 33.03125 -23.453125 "/></g></g></g><g fill="#000000" fill-opacity="1"><g transform="translate(750.230412, 369.20001)"><g><path d="M 17.109375 -32.46875 C 16.316406 -32.289062 15.75 -32.09375 15.40625 -31.875 C 15.070312 -31.664062 14.90625 -31.375 14.90625 -31 L 14.90625 -2.296875 C 14.90625 -1.617188 15.640625 -1.128906 17.109375 -0.828125 L 17.109375 0 L 5.984375 0 L 5.984375 -0.828125 C 7.453125 -1.128906 8.1875 -1.617188 8.1875 -2.296875 L 8.1875 -31 C 8.1875 -31.375 8.015625 -31.664062 7.671875 -31.875 C 7.335938 -32.09375 6.773438 -32.289062 5.984375 -32.46875 L 5.984375 -33.296875 L 17.109375 -33.296875 Z M 17.109375 -32.46875 "/></g></g></g><g fill="#000000" fill-opacity="1"><g transform="translate(773.228481, 369.20001)"><g><path d="M 3.6875 -35.515625 C 3.863281 -34.710938 4.054688 -34.140625 4.265625 -33.796875 C 4.484375 -33.460938 4.78125 -33.296875 5.15625 -33.296875 L 37.078125 -33.296875 C 37.441406 -33.296875 37.726562 -33.460938 37.9375 -33.796875 C 38.15625 -34.140625 38.359375 -34.710938 38.546875 -35.515625 L 39.375 -35.515625 L 39.375 -26.40625 L 38.546875 -26.40625 C 38.359375 -27.195312 38.15625 -27.757812 37.9375 -28.09375 C 37.726562 -28.4375 37.441406 -28.609375 37.078125 -28.609375 L 24.46875 -28.609375 L 24.46875 -2.203125 C 24.46875 -1.648438 25.207031 -1.191406 26.6875 -0.828125 L 26.6875 0 L 15.546875 0 L 15.546875 -0.828125 C 16.285156 -1.015625 16.835938 -1.195312 17.203125 -1.375 C 17.566406 -1.5625 17.75 -1.835938 17.75 -2.203125 L 17.75 -28.609375 L 5.25 -28.609375 C 4.875 -28.609375 4.578125 -28.453125 4.359375 -28.140625 C 4.148438 -27.835938 3.925781 -27.257812 3.6875 -26.40625 L 2.859375 -26.40625 L 2.859375 -35.515625 Z M 3.6875 -35.515625 "/></g></g></g><g fill="#000000" fill-opacity="1"><g transform="translate(815.360932, 369.20001)"><g><path d="M 27.515625 -32.46875 C 26.285156 -32.289062 25.671875 -31.863281 25.671875 -31.1875 C 25.671875 -31 25.757812 -30.722656 25.9375 -30.359375 C 26.125 -29.992188 26.25 -29.71875 26.3125 -29.53125 L 38.828125 -2.484375 C 39.128906 -1.929688 39.382812 -1.546875 39.59375 -1.328125 C 39.8125 -1.117188 40.226562 -0.953125 40.84375 -0.828125 L 40.84375 0 L 30.734375 0 L 30.734375 -0.828125 C 31.585938 -1.128906 32.015625 -1.4375 32.015625 -1.75 C 32.015625 -1.9375 31.953125 -2.179688 31.828125 -2.484375 L 28.421875 -9.75 L 12.703125 -9.75 L 9.390625 -2.671875 C 9.140625 -2.179688 9.015625 -1.84375 9.015625 -1.65625 C 9.015625 -1.40625 9.503906 -1.128906 10.484375 -0.828125 L 10.484375 0 L 1.28125 0 L 1.28125 -0.828125 C 1.957031 -1.078125 2.414062 -1.289062 2.65625 -1.46875 C 2.90625 -1.65625 3.15625 -2.054688 3.40625 -2.671875 L 16.09375 -29.4375 C 16.21875 -29.6875 16.375 -30.007812 16.5625 -30.40625 C 16.75 -30.800781 16.84375 -31.0625 16.84375 -31.1875 C 16.84375 -31.738281 16.195312 -32.164062 14.90625 -32.46875 L 14.90625 -33.296875 L 27.515625 -33.296875 Z M 26.5 -14.078125 L 20.703125 -26.953125 L 14.8125 -14.078125 Z M 26.5 -14.078125 "/></g></g></g><g fill="#000000" fill-opacity="1"><g transform="translate(857.493384, 369.20001)"><g><path d="M 15.828125 -32.46875 C 15.023438 -32.289062 14.453125 -32.09375 14.109375 -31.875 C 13.773438 -31.664062 13.609375 -31.40625 13.609375 -31.09375 L 13.609375 -4.6875 L 37.171875 -4.6875 C 37.535156 -4.6875 37.820312 -4.851562 38.03125 -5.1875 C 38.25 -5.53125 38.453125 -6.101562 38.640625 -6.90625 L 39.46875 -6.90625 L 39.46875 2.203125 L 38.640625 2.203125 C 38.453125 1.472656 38.265625 0.921875 38.078125 0.546875 C 37.898438 0.179688 37.597656 0 37.171875 0 L 4.6875 0 L 4.6875 -0.828125 C 6.164062 -1.078125 6.90625 -1.535156 6.90625 -2.203125 L 6.90625 -31.09375 C 6.90625 -31.40625 6.75 -31.648438 6.4375 -31.828125 C 6.132812 -32.015625 5.550781 -32.226562 4.6875 -32.46875 L 4.6875 -33.296875 L 15.828125 -33.296875 Z M 15.828125 -32.46875 "/></g></g></g><g fill="#000000" fill-opacity="1"><g transform="translate(899.637372, 369.20001)"><g/></g></g><g fill="#000000" fill-opacity="1"><g transform="translate(585.476977, 461.275017)"><g><path d="M 27.515625 -32.46875 C 26.285156 -32.289062 25.671875 -31.863281 25.671875 -31.1875 C 25.671875 -31 25.757812 -30.722656 25.9375 -30.359375 C 26.125 -29.992188 26.25 -29.71875 26.3125 -29.53125 L 38.828125 -2.484375 C 39.128906 -1.929688 39.382812 -1.546875 39.59375 -1.328125 C 39.8125 -1.117188 40.226562 -0.953125 40.84375 -0.828125 L 40.84375 0 L 30.734375 0 L 30.734375 -0.828125 C 31.585938 -1.128906 32.015625 -1.4375 32.015625 -1.75 C 32.015625 -1.9375 31.953125 -2.179688 31.828125 -2.484375 L 28.421875 -9.75 L 12.703125 -9.75 L 9.390625 -2.671875 C 9.140625 -2.179688 9.015625 -1.84375 9.015625 -1.65625 C 9.015625 -1.40625 9.503906 -1.128906 10.484375 -0.828125 L 10.484375 0 L 1.28125 0 L 1.28125 -0.828125 C 1.957031 -1.078125 2.414062 -1.289062 2.65625 -1.46875 C 2.90625 -1.65625 3.15625 -2.054688 3.40625 -2.671875 L 16.09375 -29.4375 C 16.21875 -29.6875 16.375 -30.007812 16.5625 -30.40625 C 16.75 -30.800781 16.84375 -31.0625 16.84375 -31.1875 C 16.84375 -31.738281 16.195312 -32.164062 14.90625 -32.46875 L 14.90625 -33.296875 L 27.515625 -33.296875 Z M 26.5 -14.078125 L 20.703125 -26.953125 L 14.8125 -14.078125 Z M 26.5 -14.078125 "/></g></g></g><g fill="#000000" fill-opacity="1"><g transform="translate(627.609428, 461.275017)"><g><path d="M 3.6875 -35.515625 C 3.863281 -34.710938 4.054688 -34.140625 4.265625 -33.796875 C 4.484375 -33.460938 4.78125 -33.296875 5.15625 -33.296875 L 37.078125 -33.296875 C 37.441406 -33.296875 37.726562 -33.460938 37.9375 -33.796875 C 38.15625 -34.140625 38.359375 -34.710938 38.546875 -35.515625 L 39.375 -35.515625 L 39.375 -26.40625 L 38.546875 -26.40625 C 38.359375 -27.195312 38.15625 -27.757812 37.9375 -28.09375 C 37.726562 -28.4375 37.441406 -28.609375 37.078125 -28.609375 L 24.46875 -28.609375 L 24.46875 -2.203125 C 24.46875 -1.648438 25.207031 -1.191406 26.6875 -0.828125 L 26.6875 0 L 15.546875 0 L 15.546875 -0.828125 C 16.285156 -1.015625 16.835938 -1.195312 17.203125 -1.375 C 17.566406 -1.5625 17.75 -1.835938 17.75 -2.203125 L 17.75 -28.609375 L 5.25 -28.609375 C 4.875 -28.609375 4.578125 -28.453125 4.359375 -28.140625 C 4.148438 -27.835938 3.925781 -27.257812 3.6875 -26.40625 L 2.859375 -26.40625 L 2.859375 -35.515625 Z M 3.6875 -35.515625 "/></g></g></g><g fill="#000000" fill-opacity="1"><g transform="translate(669.74188, 461.275017)"><g><path d="M 27.515625 -32.46875 C 26.285156 -32.289062 25.671875 -31.863281 25.671875 -31.1875 C 25.671875 -31 25.757812 -30.722656 25.9375 -30.359375 C 26.125 -29.992188 26.25 -29.71875 26.3125 -29.53125 L 38.828125 -2.484375 C 39.128906 -1.929688 39.382812 -1.546875 39.59375 -1.328125 C 39.8125 -1.117188 40.226562 -0.953125 40.84375 -0.828125 L 40.84375 0 L 30.734375 0 L 30.734375 -0.828125 C 31.585938 -1.128906 32.015625 -1.4375 32.015625 -1.75 C 32.015625 -1.9375 31.953125 -2.179688 31.828125 -2.484375 L 28.421875 -9.75 L 12.703125 -9.75 L 9.390625 -2.671875 C 9.140625 -2.179688 9.015625 -1.84375 9.015625 -1.65625 C 9.015625 -1.40625 9.503906 -1.128906 10.484375 -0.828125 L 10.484375 0 L 1.28125 0 L 1.28125 -0.828125 C 1.957031 -1.078125 2.414062 -1.289062 2.65625 -1.46875 C 2.90625 -1.65625 3.15625 -2.054688 3.40625 -2.671875 L 16.09375 -29.4375 C 16.21875 -29.6875 16.375 -30.007812 16.5625 -30.40625 C 16.75 -30.800781 16.84375 -31.0625 16.84375 -31.1875 C 16.84375 -31.738281 16.195312 -32.164062 14.90625 -32.46875 L 14.90625 -33.296875 L 27.515625 -33.296875 Z M 26.5 -14.078125 L 20.703125 -26.953125 L 14.8125 -14.078125 Z M 26.5 -14.078125 "/></g></g></g><g fill="#000000" fill-opacity="1"><g transform="translate(711.874332, 461.275017)"><g><path d="M 15.828125 -32.46875 C 15.023438 -32.289062 14.453125 -32.09375 14.109375 -31.875 C 13.773438 -31.664062 13.609375 -31.40625 13.609375 -31.09375 L 13.609375 -4.6875 L 37.171875 -4.6875 C 37.535156 -4.6875 37.820312 -4.851562 38.03125 -5.1875 C 38.25 -5.53125 38.453125 -6.101562 38.640625 -6.90625 L 39.46875 -6.90625 L 39.46875 2.203125 L 38.640625 2.203125 C 38.453125 1.472656 38.265625 0.921875 38.078125 0.546875 C 37.898438 0.179688 37.597656 0 37.171875 0 L 4.6875 0 L 4.6875 -0.828125 C 6.164062 -1.078125 6.90625 -1.535156 6.90625 -2.203125 L 6.90625 -31.09375 C 6.90625 -31.40625 6.75 -31.648438 6.4375 -31.828125 C 6.132812 -32.015625 5.550781 -32.226562 4.6875 -32.46875 L 4.6875 -33.296875 L 15.828125 -33.296875 Z M 15.828125 -32.46875 "/></g></g></g><g fill="#000000" fill-opacity="1"><g transform="translate(754.006783, 461.275017)"><g><path d="M 13.53125 -32.46875 C 12.238281 -32.164062 11.59375 -31.769531 11.59375 -31.28125 C 11.59375 -31.15625 11.710938 -30.9375 11.953125 -30.625 C 12.203125 -30.320312 12.390625 -30.109375 12.515625 -29.984375 L 21.625 -18.765625 L 31.28125 -30.640625 C 31.582031 -31.066406 31.734375 -31.3125 31.734375 -31.375 C 31.734375 -31.925781 31.125 -32.320312 29.90625 -32.5625 L 29.90625 -33.296875 L 40.65625 -33.296875 L 40.65625 -32.5625 C 39.800781 -32.257812 39.21875 -32.015625 38.90625 -31.828125 C 38.601562 -31.648438 38.238281 -31.253906 37.8125 -30.640625 L 24.375 -14.078125 L 24.375 -2.296875 C 24.375 -1.992188 24.507812 -1.71875 24.78125 -1.46875 C 25.0625 -1.226562 25.664062 -1.015625 26.59375 -0.828125 L 26.59375 0 L 15.453125 0 L 15.453125 -0.828125 C 16.253906 -1.015625 16.820312 -1.195312 17.15625 -1.375 C 17.488281 -1.5625 17.65625 -1.835938 17.65625 -2.203125 L 17.65625 -13.890625 L 4.234375 -30.453125 C 3.742188 -31.066406 3.328125 -31.507812 2.984375 -31.78125 C 2.648438 -32.0625 2.144531 -32.289062 1.46875 -32.46875 L 1.46875 -33.296875 L 13.4375 -33.296875 Z M 13.53125 -32.46875 "/></g></g></g><g fill="#000000" fill-opacity="1"><g transform="translate(796.139235, 461.275017)"><g><path d="M 20.421875 -34.046875 C 24.472656 -34.046875 28 -33.492188 31 -32.390625 C 34.007812 -31.285156 35.546875 -30.734375 35.609375 -30.734375 C 35.972656 -30.734375 36.429688 -31.128906 36.984375 -31.921875 L 37.71875 -31.5625 L 33.671875 -24.28125 L 32.9375 -24.5625 C 33.0625 -25.050781 33.125 -25.359375 33.125 -25.484375 C 33.125 -26.097656 32.785156 -26.554688 32.109375 -26.859375 C 30.816406 -27.535156 29.128906 -28.117188 27.046875 -28.609375 C 24.960938 -29.097656 22.785156 -29.34375 20.515625 -29.34375 C 17.515625 -29.34375 15.09375 -28.882812 13.25 -27.96875 C 11.40625 -27.050781 10.484375 -25.820312 10.484375 -24.28125 C 10.484375 -23.0625 11.171875 -22.175781 12.546875 -21.625 C 13.929688 -21.070312 16.460938 -20.671875 20.140625 -20.421875 C 25.972656 -19.992188 30.421875 -19.023438 33.484375 -17.515625 C 36.554688 -16.015625 38.09375 -13.550781 38.09375 -10.125 C 38.09375 -6.9375 36.648438 -4.328125 33.765625 -2.296875 C 30.878906 -0.273438 27.195312 0.734375 22.71875 0.734375 C 20.570312 0.734375 18.117188 0.472656 15.359375 -0.046875 C 12.597656 -0.566406 9.898438 -1.347656 7.265625 -2.390625 C 6.347656 -2.753906 5.828125 -2.9375 5.703125 -2.9375 C 5.335938 -2.9375 4.910156 -2.632812 4.421875 -2.03125 L 3.59375 -2.484375 L 7.453125 -10.03125 L 8.28125 -9.65625 L 8.1875 -8.1875 C 8.1875 -7.632812 8.890625 -7.019531 10.296875 -6.34375 C 11.710938 -5.675781 13.460938 -5.109375 15.546875 -4.640625 C 17.628906 -4.179688 19.625 -3.953125 21.53125 -3.953125 C 25.019531 -3.953125 27.671875 -4.472656 29.484375 -5.515625 C 31.296875 -6.554688 32.203125 -7.875 32.203125 -9.46875 C 32.203125 -11.070312 31.296875 -12.238281 29.484375 -12.96875 C 27.671875 -13.707031 24.710938 -14.171875 20.609375 -14.359375 C 15.703125 -14.597656 11.804688 -15.34375 8.921875 -16.59375 C 6.035156 -17.851562 4.59375 -20.171875 4.59375 -23.546875 C 4.59375 -26.492188 5.941406 -28.976562 8.640625 -31 C 11.347656 -33.03125 15.273438 -34.046875 20.421875 -34.046875 Z M 20.421875 -34.046875 "/></g></g></g><g fill="#000000" fill-opacity="1"><g transform="translate(838.271687, 461.275017)"><g><path d="M 3.6875 -35.515625 C 3.863281 -34.710938 4.054688 -34.140625 4.265625 -33.796875 C 4.484375 -33.460938 4.78125 -33.296875 5.15625 -33.296875 L 37.078125 -33.296875 C 37.441406 -33.296875 37.726562 -33.460938 37.9375 -33.796875 C 38.15625 -34.140625 38.359375 -34.710938 38.546875 -35.515625 L 39.375 -35.515625 L 39.375 -26.40625 L 38.546875 -26.40625 C 38.359375 -27.195312 38.15625 -27.757812 37.9375 -28.09375 C 37.726562 -28.4375 37.441406 -28.609375 37.078125 -28.609375 L 24.46875 -28.609375 L 24.46875 -2.203125 C 24.46875 -1.648438 25.207031 -1.191406 26.6875 -0.828125 L 26.6875 0 L 15.546875 0 L 15.546875 -0.828125 C 16.285156 -1.015625 16.835938 -1.195312 17.203125 -1.375 C 17.566406 -1.5625 17.75 -1.835938 17.75 -2.203125 L 17.75 -28.609375 L 5.25 -28.609375 C 4.875 -28.609375 4.578125 -28.453125 4.359375 -28.140625 C 4.148438 -27.835938 3.925781 -27.257812 3.6875 -26.40625 L 2.859375 -26.40625 L 2.859375 -35.515625 Z M 3.6875 -35.515625 "/></g></g></g></svg>