<svg xmlns="http://www.w3.org/2000/svg" xmlns:xlink="http://www.w3.org/1999/xlink" width="1920" zoomAndPan="magnify" viewBox="0 0 1440 809.999993" height="1080" preserveAspectRatio="xMidYMid meet" version="1.0"><defs><clipPath id="0b752204c2"><path d="M 416.167969 138 L 1023.667969 138 L 1023.667969 671 L 416.167969 671 Z M 416.167969 138 " clip-rule="nonzero"/></clipPath><clipPath id="be4393d25a"><path d="M 682.570312 281.128906 L 1086.820312 281.128906 L 1086.820312 686 L 682.570312 686 Z M 682.570312 281.128906 " clip-rule="nonzero"/></clipPath></defs><g clip-path="url(#0b752204c2)"><path fill="#000000" d="M 730.625 507.953125 L 730.625 540.238281 L 758 550.28125 L 758 517.992188 Z M 730.625 444.933594 L 730.625 477.21875 L 758 487.261719 L 758 454.976562 Z M 867.347656 407.4375 L 807.210938 446.535156 L 807.210938 607.917969 C 827.65625 610.222656 847.738281 613.335938 867.347656 617.246094 Z M 730.625 381.960938 L 730.625 414.203125 L 758 424.25 L 758 392 Z M 559.902344 372.910156 L 499.734375 412.003906 L 499.734375 635.804688 C 518.96875 629.628906 539.101562 624.289062 559.902344 619.824219 Z M 785.09375 338.960938 L 785.09375 371.203125 L 812.476562 381.25 L 812.476562 349.011719 Z M 730.625 318.949219 L 730.625 351.238281 L 758 361.285156 L 758 329 Z M 785.09375 275.941406 L 785.09375 308.238281 L 812.476562 318.238281 L 812.476562 286 Z M 730.625 255.945312 L 730.625 288.226562 L 758 298.265625 L 758 265.980469 Z M 785.09375 212.941406 L 785.09375 245.226562 L 812.476562 255.265625 L 812.476562 222.980469 Z M 730.625 192.929688 L 730.625 225.214844 L 758 235.253906 L 758 202.96875 Z M 694.28125 162.003906 L 634.113281 201.101562 L 634.113281 607.710938 C 653.953125 605.601562 674.042969 604.199219 694.28125 603.609375 Z M 706.867188 138.71875 L 835.820312 186.027344 L 835.820312 385.472656 L 776.09375 424.328125 L 776.09375 605.203125 C 782.222656 605.5625 788.40625 606.035156 794.542969 606.5625 L 794.542969 439.667969 L 879.980469 384.15625 L 952.742188 431.472656 L 952.742188 639.914062 C 978.285156 648.769531 1002.039062 659.007812 1023.546875 670.523438 L 416.292969 670.523438 C 437.808594 659.089844 461.5625 648.890625 487.066406 640.121094 L 487.066406 405.164062 L 572.503906 349.636719 L 621.472656 381.441406 L 621.472656 194.28125 Z M 706.867188 138.71875 " fill-opacity="1" fill-rule="evenodd"/></g><path fill="#ffffff" d="M 1084.527344 427.476562 L 1049.816406 283.21875 L 922.320312 359.234375 L 956.554688 373.636719 C 882.964844 619.578125 685 683.894531 685 683.894531 C 919.367188 654.703125 1026.519531 448.410156 1044.308594 410.550781 L 1084.527344 427.476562 " fill-opacity="1" fill-rule="nonzero"/><g clip-path="url(#be4393d25a)"><path fill="#231f20" d="M 1084.527344 427.476562 L 1086.523438 426.996094 L 1051.804688 282.742188 C 1051.65625 282.113281 1051.207031 281.589844 1050.609375 281.332031 C 1050.011719 281.082031 1049.324219 281.128906 1048.765625 281.464844 L 921.269531 357.476562 C 920.605469 357.871094 920.222656 358.609375 920.277344 359.378906 C 920.328125 360.148438 920.816406 360.824219 921.523438 361.121094 L 955.757812 375.523438 L 956.554688 373.636719 L 954.589844 373.050781 C 917.921875 495.578125 850.332031 572.773438 791.902344 619.394531 C 762.6875 642.703125 735.765625 658.355469 716.167969 668.175781 C 706.363281 673.082031 698.394531 676.535156 692.886719 678.753906 C 690.128906 679.863281 687.988281 680.664062 686.542969 681.191406 C 685.824219 681.453125 685.273438 681.644531 684.90625 681.769531 C 684.722656 681.832031 684.585938 681.878906 684.492188 681.90625 L 684.367188 681.949219 C 683.363281 682.28125 682.769531 683.3125 683 684.34375 C 683.230469 685.371094 684.207031 686.058594 685.25 685.933594 C 803.003906 671.261719 888.816406 612.082031 947.339844 551.898438 C 1005.875 491.707031 1037.203125 430.480469 1046.164062 411.425781 L 1044.308594 410.550781 L 1043.511719 412.4375 L 1083.734375 429.355469 C 1084.445312 429.65625 1085.269531 429.53125 1085.855469 429.03125 C 1086.445312 428.53125 1086.699219 427.742188 1086.523438 426.996094 L 1084.527344 427.476562 L 1085.324219 425.585938 L 1045.105469 408.664062 C 1044.089844 408.238281 1042.921875 408.683594 1042.457031 409.683594 C 1033.625 428.472656 1002.484375 489.328125 944.402344 549.042969 C 886.308594 608.765625 801.367188 667.332031 684.746094 681.863281 L 685 683.894531 L 685.636719 685.847656 C 685.796875 685.789062 735.507812 669.625 794.457031 622.597656 C 853.40625 575.574219 921.59375 497.640625 958.515625 374.222656 C 958.816406 373.222656 958.308594 372.15625 957.347656 371.75 L 926.851562 358.921875 L 1048.476562 286.402344 L 1082.539062 427.949219 L 1084.527344 427.476562 L 1085.324219 425.585938 L 1084.527344 427.476562 " fill-opacity="1" fill-rule="nonzero"/></g></svg>