<svg xmlns="http://www.w3.org/2000/svg" xmlns:xlink="http://www.w3.org/1999/xlink" width="1920" zoomAndPan="magnify" viewBox="0 0 1440 809.999993" height="1080" preserveAspectRatio="xMidYMid meet" version="1.0"><defs><clipPath id="a21d1af5eb"><path d="M 829 280 L 923 280 L 923 354 L 829 354 Z M 829 280 " clip-rule="nonzero"/></clipPath><clipPath id="bb71eacf4a"><path d="M 463.441406 78.691406 L 857.671875 0.0429688 L 936.324219 394.273438 L 542.09375 472.921875 Z M 463.441406 78.691406 " clip-rule="nonzero"/></clipPath><clipPath id="f4fdeafae1"><path d="M 463.441406 78.691406 L 857.671875 0.0429688 L 936.324219 394.273438 L 542.09375 472.921875 Z M 463.441406 78.691406 " clip-rule="nonzero"/></clipPath><clipPath id="302c0813a8"><path d="M 463.441406 78.691406 L 857.671875 0.0429688 L 936.324219 394.273438 L 542.09375 472.921875 Z M 463.441406 78.691406 " clip-rule="nonzero"/></clipPath><clipPath id="3ad2d54466"><path d="M 548 359 L 600 359 L 600 406 L 548 406 Z M 548 359 " clip-rule="nonzero"/></clipPath><clipPath id="a9612c8e7e"><path d="M 463.441406 78.691406 L 857.671875 0.0429688 L 936.324219 394.273438 L 542.09375 472.921875 Z M 463.441406 78.691406 " clip-rule="nonzero"/></clipPath><clipPath id="1f1a29e4f1"><path d="M 463.441406 78.691406 L 857.671875 0.0429688 L 936.324219 394.273438 L 542.09375 472.921875 Z M 463.441406 78.691406 " clip-rule="nonzero"/></clipPath><clipPath id="7422ce1a7b"><path d="M 463.441406 78.691406 L 857.671875 0.0429688 L 936.324219 394.273438 L 542.09375 472.921875 Z M 463.441406 78.691406 " clip-rule="nonzero"/></clipPath><clipPath id="bdfb6f2794"><path d="M 499 177 L 524 177 L 524 239 L 499 239 Z M 499 177 " clip-rule="nonzero"/></clipPath><clipPath id="2f1f342993"><path d="M 463.441406 78.691406 L 857.671875 0.0429688 L 936.324219 394.273438 L 542.09375 472.921875 Z M 463.441406 78.691406 " clip-rule="nonzero"/></clipPath><clipPath id="e414cdf577"><path d="M 463.441406 78.691406 L 857.671875 0.0429688 L 936.324219 394.273438 L 542.09375 472.921875 Z M 463.441406 78.691406 " clip-rule="nonzero"/></clipPath><clipPath id="c11fc0c06c"><path d="M 463.441406 78.691406 L 857.671875 0.0429688 L 936.324219 394.273438 L 542.09375 472.921875 Z M 463.441406 78.691406 " clip-rule="nonzero"/></clipPath><clipPath id="d98acb4e3f"><path d="M 726 406 L 787 406 L 787 435 L 726 435 Z M 726 406 " clip-rule="nonzero"/></clipPath><clipPath id="9fe337c3f9"><path d="M 463.441406 78.691406 L 857.671875 0.0429688 L 936.324219 394.273438 L 542.09375 472.921875 Z M 463.441406 78.691406 " clip-rule="nonzero"/></clipPath><clipPath id="8046c0018b"><path d="M 463.441406 78.691406 L 857.671875 0.0429688 L 936.324219 394.273438 L 542.09375 472.921875 Z M 463.441406 78.691406 " clip-rule="nonzero"/></clipPath><clipPath id="0861f4c9fc"><path d="M 463.441406 78.691406 L 857.671875 0.0429688 L 936.324219 394.273438 L 542.09375 472.921875 Z M 463.441406 78.691406 " clip-rule="nonzero"/></clipPath><clipPath id="2d9eb8d9cb"><path d="M 504 273 L 535 273 L 535 334 L 504 334 Z M 504 273 " clip-rule="nonzero"/></clipPath><clipPath id="d480fa1e6c"><path d="M 463.441406 78.691406 L 857.671875 0.0429688 L 936.324219 394.273438 L 542.09375 472.921875 Z M 463.441406 78.691406 " clip-rule="nonzero"/></clipPath><clipPath id="56448796ec"><path d="M 463.441406 78.691406 L 857.671875 0.0429688 L 936.324219 394.273438 L 542.09375 472.921875 Z M 463.441406 78.691406 " clip-rule="nonzero"/></clipPath><clipPath id="ba834f492a"><path d="M 463.441406 78.691406 L 857.671875 0.0429688 L 936.324219 394.273438 L 542.09375 472.921875 Z M 463.441406 78.691406 " clip-rule="nonzero"/></clipPath><clipPath id="e33f2407b3"><path d="M 629 413 L 692 413 L 692 437 L 629 437 Z M 629 413 " clip-rule="nonzero"/></clipPath><clipPath id="2b1ef91814"><path d="M 463.441406 78.691406 L 857.671875 0.0429688 L 936.324219 394.273438 L 542.09375 472.921875 Z M 463.441406 78.691406 " clip-rule="nonzero"/></clipPath><clipPath id="76b4388ec0"><path d="M 463.441406 78.691406 L 857.671875 0.0429688 L 936.324219 394.273438 L 542.09375 472.921875 Z M 463.441406 78.691406 " clip-rule="nonzero"/></clipPath><clipPath id="59cc4c7ec9"><path d="M 463.441406 78.691406 L 857.671875 0.0429688 L 936.324219 394.273438 L 542.09375 472.921875 Z M 463.441406 78.691406 " clip-rule="nonzero"/></clipPath><clipPath id="8a297ed596"><path d="M 814 364 L 847 364 L 847 395 L 814 395 Z M 814 364 " clip-rule="nonzero"/></clipPath><clipPath id="7955c7ab4e"><path d="M 463.441406 78.691406 L 857.671875 0.0429688 L 936.324219 394.273438 L 542.09375 472.921875 Z M 463.441406 78.691406 " clip-rule="nonzero"/></clipPath><clipPath id="456539552e"><path d="M 463.441406 78.691406 L 857.671875 0.0429688 L 936.324219 394.273438 L 542.09375 472.921875 Z M 463.441406 78.691406 " clip-rule="nonzero"/></clipPath><clipPath id="e2bf6e9fb0"><path d="M 463.441406 78.691406 L 857.671875 0.0429688 L 936.324219 394.273438 L 542.09375 472.921875 Z M 463.441406 78.691406 " clip-rule="nonzero"/></clipPath><clipPath id="bd98362309"><path d="M 711 37 L 772 37 L 772 62 L 711 62 Z M 711 37 " clip-rule="nonzero"/></clipPath><clipPath id="5e654fdf06"><path d="M 463.441406 78.691406 L 857.671875 0.0429688 L 936.324219 394.273438 L 542.09375 472.921875 Z M 463.441406 78.691406 " clip-rule="nonzero"/></clipPath><clipPath id="4c9b844560"><path d="M 463.441406 78.691406 L 857.671875 0.0429688 L 936.324219 394.273438 L 542.09375 472.921875 Z M 463.441406 78.691406 " clip-rule="nonzero"/></clipPath><clipPath id="514bf30cad"><path d="M 463.441406 78.691406 L 857.671875 0.0429688 L 936.324219 394.273438 L 542.09375 472.921875 Z M 463.441406 78.691406 " clip-rule="nonzero"/></clipPath><clipPath id="3dc6329533"><path d="M 800 68 L 850 68 L 850 114 L 800 114 Z M 800 68 " clip-rule="nonzero"/></clipPath><clipPath id="701a47f0dd"><path d="M 463.441406 78.691406 L 857.671875 0.0429688 L 936.324219 394.273438 L 542.09375 472.921875 Z M 463.441406 78.691406 " clip-rule="nonzero"/></clipPath><clipPath id="8abc104596"><path d="M 463.441406 78.691406 L 857.671875 0.0429688 L 936.324219 394.273438 L 542.09375 472.921875 Z M 463.441406 78.691406 " clip-rule="nonzero"/></clipPath><clipPath id="fe1ceebaf1"><path d="M 463.441406 78.691406 L 857.671875 0.0429688 L 936.324219 394.273438 L 542.09375 472.921875 Z M 463.441406 78.691406 " clip-rule="nonzero"/></clipPath><clipPath id="8603cebd93"><path d="M 863 137 L 895 137 L 895 196 L 863 196 Z M 863 137 " clip-rule="nonzero"/></clipPath><clipPath id="0ee839d972"><path d="M 463.441406 78.691406 L 857.671875 0.0429688 L 936.324219 394.273438 L 542.09375 472.921875 Z M 463.441406 78.691406 " clip-rule="nonzero"/></clipPath><clipPath id="7b51559ad4"><path d="M 463.441406 78.691406 L 857.671875 0.0429688 L 936.324219 394.273438 L 542.09375 472.921875 Z M 463.441406 78.691406 " clip-rule="nonzero"/></clipPath><clipPath id="29ec56c9c2"><path d="M 463.441406 78.691406 L 857.671875 0.0429688 L 936.324219 394.273438 L 542.09375 472.921875 Z M 463.441406 78.691406 " clip-rule="nonzero"/></clipPath><clipPath id="46253968a2"><path d="M 879 228 L 901 228 L 901 290 L 879 290 Z M 879 228 " clip-rule="nonzero"/></clipPath><clipPath id="10b41286da"><path d="M 463.441406 78.691406 L 857.671875 0.0429688 L 936.324219 394.273438 L 542.09375 472.921875 Z M 463.441406 78.691406 " clip-rule="nonzero"/></clipPath><clipPath id="f8bf1370ab"><path d="M 463.441406 78.691406 L 857.671875 0.0429688 L 936.324219 394.273438 L 542.09375 472.921875 Z M 463.441406 78.691406 " clip-rule="nonzero"/></clipPath><clipPath id="d9e11feab7"><path d="M 463.441406 78.691406 L 857.671875 0.0429688 L 936.324219 394.273438 L 542.09375 472.921875 Z M 463.441406 78.691406 " clip-rule="nonzero"/></clipPath><clipPath id="f971421998"><path d="M 618 38 L 679 38 L 679 65 L 618 65 Z M 618 38 " clip-rule="nonzero"/></clipPath><clipPath id="0e60fd7297"><path d="M 463.441406 78.691406 L 857.671875 0.0429688 L 936.324219 394.273438 L 542.09375 472.921875 Z M 463.441406 78.691406 " clip-rule="nonzero"/></clipPath><clipPath id="0a745afbcb"><path d="M 463.441406 78.691406 L 857.671875 0.0429688 L 936.324219 394.273438 L 542.09375 472.921875 Z M 463.441406 78.691406 " clip-rule="nonzero"/></clipPath><clipPath id="8b293c5ce8"><path d="M 463.441406 78.691406 L 857.671875 0.0429688 L 936.324219 394.273438 L 542.09375 472.921875 Z M 463.441406 78.691406 " clip-rule="nonzero"/></clipPath><clipPath id="75a29e8d85"><path d="M 559 74 L 592 74 L 592 104 L 559 104 Z M 559 74 " clip-rule="nonzero"/></clipPath><clipPath id="01a2aaa112"><path d="M 463.441406 78.691406 L 857.671875 0.0429688 L 936.324219 394.273438 L 542.09375 472.921875 Z M 463.441406 78.691406 " clip-rule="nonzero"/></clipPath><clipPath id="4f589f7650"><path d="M 463.441406 78.691406 L 857.671875 0.0429688 L 936.324219 394.273438 L 542.09375 472.921875 Z M 463.441406 78.691406 " clip-rule="nonzero"/></clipPath><clipPath id="7d973b5f7f"><path d="M 463.441406 78.691406 L 857.671875 0.0429688 L 936.324219 394.273438 L 542.09375 472.921875 Z M 463.441406 78.691406 " clip-rule="nonzero"/></clipPath><clipPath id="ac48542be0"><path d="M 482 111 L 576 111 L 576 186 L 482 186 Z M 482 111 " clip-rule="nonzero"/></clipPath><clipPath id="e583f2a02a"><path d="M 463.441406 78.691406 L 857.671875 0.0429688 L 936.324219 394.273438 L 542.09375 472.921875 Z M 463.441406 78.691406 " clip-rule="nonzero"/></clipPath><clipPath id="8d594d4784"><path d="M 463.441406 78.691406 L 857.671875 0.0429688 L 936.324219 394.273438 L 542.09375 472.921875 Z M 463.441406 78.691406 " clip-rule="nonzero"/></clipPath><clipPath id="e248f8fa52"><path d="M 463.441406 78.691406 L 857.671875 0.0429688 L 936.324219 394.273438 L 542.09375 472.921875 Z M 463.441406 78.691406 " clip-rule="nonzero"/></clipPath><clipPath id="75f6f5db19"><path d="M 669 211 L 693 211 L 693 240 L 669 240 Z M 669 211 " clip-rule="nonzero"/></clipPath><clipPath id="246133e96a"><path d="M 463.441406 78.691406 L 857.671875 0.0429688 L 936.324219 394.273438 L 542.09375 472.921875 Z M 463.441406 78.691406 " clip-rule="nonzero"/></clipPath><clipPath id="7a05ca9b95"><path d="M 463.441406 78.691406 L 857.671875 0.0429688 L 936.324219 394.273438 L 542.09375 472.921875 Z M 463.441406 78.691406 " clip-rule="nonzero"/></clipPath><clipPath id="2f81900f89"><path d="M 463.441406 78.691406 L 857.671875 0.0429688 L 936.324219 394.273438 L 542.09375 472.921875 Z M 463.441406 78.691406 " clip-rule="nonzero"/></clipPath><clipPath id="7d2f3662d8"><path d="M 709 247 L 733 247 L 733 277 L 709 277 Z M 709 247 " clip-rule="nonzero"/></clipPath><clipPath id="0d0afd8865"><path d="M 463.441406 78.691406 L 857.671875 0.0429688 L 936.324219 394.273438 L 542.09375 472.921875 Z M 463.441406 78.691406 " clip-rule="nonzero"/></clipPath><clipPath id="cea57cb2a3"><path d="M 463.441406 78.691406 L 857.671875 0.0429688 L 936.324219 394.273438 L 542.09375 472.921875 Z M 463.441406 78.691406 " clip-rule="nonzero"/></clipPath><clipPath id="6fff2997cb"><path d="M 463.441406 78.691406 L 857.671875 0.0429688 L 936.324219 394.273438 L 542.09375 472.921875 Z M 463.441406 78.691406 " clip-rule="nonzero"/></clipPath><clipPath id="f0acfb67be"><path d="M 576 119 L 826 119 L 826 369 L 576 369 Z M 576 119 " clip-rule="nonzero"/></clipPath><clipPath id="ddd25c1bfb"><path d="M 463.441406 78.691406 L 857.671875 0.0429688 L 936.324219 394.273438 L 542.09375 472.921875 Z M 463.441406 78.691406 " clip-rule="nonzero"/></clipPath><clipPath id="b0960634f2"><path d="M 463.441406 78.691406 L 857.671875 0.0429688 L 936.324219 394.273438 L 542.09375 472.921875 Z M 463.441406 78.691406 " clip-rule="nonzero"/></clipPath><clipPath id="11d6642eba"><path d="M 463.441406 78.691406 L 857.671875 0.0429688 L 936.324219 394.273438 L 542.09375 472.921875 Z M 463.441406 78.691406 " clip-rule="nonzero"/></clipPath><clipPath id="ffae18ab5b"><path d="M 406 408 L 1037.917969 408 L 1037.917969 809 L 406 809 Z M 406 408 " clip-rule="nonzero"/></clipPath></defs><g clip-path="url(#a21d1af5eb)"><g clip-path="url(#bb71eacf4a)"><g clip-path="url(#f4fdeafae1)"><g clip-path="url(#302c0813a8)"><path fill="#000000" d="M 913.347656 321.289062 L 871.082031 334.714844 C 872.109375 332.902344 873.183594 331.074219 874.152344 329.277344 C 875.957031 325.90625 874.691406 321.714844 871.316406 319.910156 C 867.941406 318.097656 863.753906 319.371094 861.949219 322.746094 C 860.625 325.226562 859.164062 327.746094 857.710938 330.257812 L 843.351562 285.054688 C 842.195312 281.402344 838.300781 279.429688 834.664062 280.550781 C 831.023438 281.714844 829.011719 285.601562 830.167969 289.234375 C 830.992188 291.84375 831.824219 294.457031 832.652344 297.066406 C 834.550781 303.03125 836.441406 308.988281 838.339844 314.953125 C 840.410156 321.480469 842.492188 328.015625 844.5625 334.546875 C 845.933594 338.867188 847.308594 343.175781 848.675781 347.496094 C 849.398438 349.773438 850.433594 351.875 852.683594 353.007812 C 855.359375 354.355469 857.910156 353.421875 860.523438 352.589844 C 862.582031 351.941406 864.636719 351.285156 866.695312 350.632812 C 872.871094 348.675781 879.042969 346.710938 885.21875 344.75 C 891.742188 342.679688 898.265625 340.609375 904.785156 338.53125 C 908.773438 337.265625 912.753906 336.003906 916.742188 334.738281 C 917.011719 334.648438 917.285156 334.566406 917.550781 334.476562 C 921.191406 333.3125 923.210938 329.425781 922.054688 325.789062 C 920.898438 322.152344 916.976562 320.171875 913.347656 321.289062 Z M 913.347656 321.289062 " fill-opacity="1" fill-rule="nonzero"/></g></g></g></g><g clip-path="url(#3ad2d54466)"><g clip-path="url(#a9612c8e7e)"><g clip-path="url(#1f1a29e4f1)"><g clip-path="url(#7422ce1a7b)"><path fill="#000000" d="M 560.816406 361.824219 C 558.261719 358.992188 553.882812 358.757812 551.042969 361.320312 C 548.199219 363.875 547.980469 368.253906 550.535156 371.09375 C 561.851562 383.640625 574.742188 394.746094 588.863281 404.109375 C 590.449219 405.160156 592.3125 405.472656 594.042969 405.128906 C 595.785156 404.78125 597.394531 403.761719 598.453125 402.167969 C 600.5625 398.980469 599.691406 394.6875 596.511719 392.578125 C 583.359375 383.863281 571.351562 373.507812 560.816406 361.824219 Z M 560.816406 361.824219 " fill-opacity="1" fill-rule="nonzero"/></g></g></g></g><g clip-path="url(#bdfb6f2794)"><g clip-path="url(#2f1f342993)"><g clip-path="url(#e414cdf577)"><g clip-path="url(#c11fc0c06c)"><path fill="#000000" d="M 506.398438 238.769531 C 507.003906 238.804688 507.605469 238.761719 508.179688 238.648438 C 511.1875 238.046875 513.535156 235.488281 513.726562 232.285156 C 514.648438 217.210938 517.746094 201.6875 522.933594 186.160156 C 524.144531 182.539062 522.183594 178.613281 518.554688 177.410156 C 514.933594 176.199219 511.011719 178.152344 509.804688 181.78125 C 504.242188 198.453125 500.914062 215.164062 499.914062 231.449219 C 499.679688 235.25 502.585938 238.535156 506.398438 238.769531 Z M 506.398438 238.769531 " fill-opacity="1" fill-rule="nonzero"/></g></g></g></g><g clip-path="url(#d98acb4e3f)"><g clip-path="url(#9fe337c3f9)"><g clip-path="url(#8046c0018b)"><g clip-path="url(#0861f4c9fc)"><path fill="#000000" d="M 776.914062 407.082031 C 762.664062 413.515625 747.332031 418.15625 731.84375 420.898438 C 728.308594 421.753906 725.574219 425.15625 726.238281 428.925781 C 726.90625 432.6875 730.496094 435.195312 734.257812 434.527344 C 735.824219 434.25 737.390625 433.960938 738.992188 433.648438 C 754.089844 430.636719 768.769531 425.945312 782.609375 419.703125 C 786.089844 418.136719 787.644531 414.035156 786.074219 410.554688 C 784.488281 407.058594 780.390625 405.507812 776.914062 407.082031 Z M 776.914062 407.082031 " fill-opacity="1" fill-rule="nonzero"/></g></g></g></g><g clip-path="url(#2d9eb8d9cb)"><g clip-path="url(#d480fa1e6c)"><g clip-path="url(#56448796ec)"><g clip-path="url(#ba834f492a)"><path fill="#000000" d="M 517.707031 278.9375 C 516.84375 275.207031 513.125 272.9375 509.410156 273.742188 C 505.6875 274.605469 503.367188 278.320312 504.222656 282.035156 C 508.039062 298.582031 513.914062 314.554688 521.6875 329.507812 C 523.140625 332.308594 526.234375 333.695312 529.179688 333.105469 C 529.800781 332.980469 530.429688 332.765625 531.015625 332.457031 C 534.40625 330.703125 535.722656 326.523438 533.96875 323.132812 C 526.730469 309.210938 521.261719 294.351562 517.707031 278.9375 Z M 517.707031 278.9375 " fill-opacity="1" fill-rule="nonzero"/></g></g></g></g><g clip-path="url(#e33f2407b3)"><g clip-path="url(#2b1ef91814)"><g clip-path="url(#76b4388ec0)"><g clip-path="url(#59cc4c7ec9)"><path fill="#000000" d="M 684.8125 423.136719 C 669.132812 421.890625 653.632812 418.632812 638.726562 413.476562 C 635.117188 412.222656 631.171875 414.136719 629.925781 417.746094 C 628.671875 421.363281 630.585938 425.296875 634.191406 426.546875 C 650.199219 432.09375 666.863281 435.585938 683.710938 436.921875 C 684.363281 436.976562 685.003906 436.933594 685.613281 436.8125 C 688.574219 436.222656 690.90625 433.730469 691.15625 430.570312 C 691.464844 426.769531 688.617188 423.433594 684.8125 423.136719 Z M 684.8125 423.136719 " fill-opacity="1" fill-rule="nonzero"/></g></g></g></g><g clip-path="url(#8a297ed596)"><g clip-path="url(#7955c7ab4e)"><g clip-path="url(#456539552e)"><g clip-path="url(#e2bf6e9fb0)"><path fill="#000000" d="M 834.4375 366.480469 C 829.046875 372.101562 823.265625 377.402344 817.257812 382.261719 C 814.289062 384.660156 813.824219 389.015625 816.222656 391.992188 C 817.898438 394.066406 820.523438 394.917969 822.96875 394.429688 C 824.027344 394.21875 825.054688 393.757812 825.953125 393.03125 C 832.414062 387.8125 838.628906 382.105469 844.421875 376.066406 C 847.066406 373.308594 846.976562 368.933594 844.21875 366.28125 C 841.46875 363.644531 837.085938 363.730469 834.4375 366.480469 Z M 834.4375 366.480469 " fill-opacity="1" fill-rule="nonzero"/></g></g></g></g><g clip-path="url(#bd98362309)"><g clip-path="url(#5e654fdf06)"><g clip-path="url(#4c9b844560)"><g clip-path="url(#514bf30cad)"><path fill="#000000" d="M 717.945312 50.882812 C 733.078125 52.359375 748.03125 55.703125 762.390625 60.832031 C 763.613281 61.273438 764.875 61.347656 766.0625 61.109375 C 768.371094 60.648438 770.382812 59.027344 771.234375 56.648438 C 772.519531 53.046875 770.644531 49.089844 767.042969 47.8125 C 751.613281 42.296875 735.550781 38.699219 719.289062 37.117188 C 715.492188 36.753906 712.109375 39.53125 711.730469 43.332031 C 711.355469 47.132812 714.144531 50.511719 717.945312 50.882812 Z M 717.945312 50.882812 " fill-opacity="1" fill-rule="nonzero"/></g></g></g></g><g clip-path="url(#3dc6329533)"><g clip-path="url(#701a47f0dd)"><g clip-path="url(#8abc104596)"><g clip-path="url(#fe1ceebaf1)"><path fill="#000000" d="M 837.726562 110.898438 C 839.421875 112.753906 841.890625 113.46875 844.1875 113.007812 C 845.378906 112.769531 846.53125 112.210938 847.496094 111.324219 C 850.320312 108.75 850.511719 104.375 847.933594 101.550781 C 836.914062 89.503906 824.414062 78.796875 810.765625 69.722656 C 807.582031 67.605469 803.285156 68.457031 801.171875 71.652344 C 799.058594 74.839844 799.917969 79.125 803.101562 81.242188 C 815.816406 89.707031 827.464844 99.679688 837.726562 110.898438 Z M 837.726562 110.898438 " fill-opacity="1" fill-rule="nonzero"/></g></g></g></g><g clip-path="url(#8603cebd93)"><g clip-path="url(#0ee839d972)"><g clip-path="url(#7b51559ad4)"><g clip-path="url(#29ec56c9c2)"><path fill="#000000" d="M 880.695312 190.449219 C 881.609375 194.03125 885.167969 196.238281 888.75 195.523438 C 888.871094 195.496094 888.992188 195.472656 889.113281 195.441406 C 892.8125 194.492188 895.050781 190.722656 894.101562 187.019531 C 890.042969 171.132812 884.054688 155.796875 876.304688 141.449219 C 874.492188 138.09375 870.289062 136.839844 866.925781 138.648438 C 863.5625 140.460938 862.3125 144.664062 864.125 148.027344 C 871.339844 161.382812 876.914062 175.660156 880.695312 190.449219 Z M 880.695312 190.449219 " fill-opacity="1" fill-rule="nonzero"/></g></g></g></g><g clip-path="url(#46253968a2)"><g clip-path="url(#10b41286da)"><g clip-path="url(#f8bf1370ab)"><g clip-path="url(#d9e11feab7)"><path fill="#000000" d="M 886.222656 235.515625 C 886.027344 250.378906 883.75 265.480469 879.449219 280.398438 C 878.390625 284.066406 880.511719 287.90625 884.1875 288.964844 C 885.285156 289.273438 886.398438 289.304688 887.445312 289.097656 C 889.902344 288.609375 892 286.796875 892.742188 284.222656 C 897.382812 268.121094 899.839844 251.792969 900.054688 235.707031 C 900.101562 231.886719 897.050781 228.75 893.230469 228.691406 C 889.390625 228.589844 886.277344 231.695312 886.222656 235.515625 Z M 886.222656 235.515625 " fill-opacity="1" fill-rule="nonzero"/></g></g></g></g><g clip-path="url(#f971421998)"><g clip-path="url(#0e60fd7297)"><g clip-path="url(#0a745afbcb)"><g clip-path="url(#8b293c5ce8)"><path fill="#000000" d="M 627.171875 64.519531 C 627.601562 64.433594 628.035156 64.304688 628.457031 64.128906 C 642.480469 58.359375 657.460938 54.257812 672.402344 52.054688 C 676.171875 51.5 678.792969 47.976562 678.238281 44.199219 C 677.679688 40.417969 674.167969 37.808594 670.382812 38.359375 C 654.347656 40.710938 638.265625 45.140625 623.199219 51.328125 C 619.664062 52.773438 617.976562 56.824219 619.429688 60.355469 C 620.707031 63.476562 623.996094 65.152344 627.171875 64.519531 Z M 627.171875 64.519531 " fill-opacity="1" fill-rule="nonzero"/></g></g></g></g><g clip-path="url(#75a29e8d85)"><g clip-path="url(#01a2aaa112)"><g clip-path="url(#4f589f7650)"><g clip-path="url(#7d973b5f7f)"><path fill="#000000" d="M 567.296875 103.503906 C 568.542969 103.253906 569.730469 102.65625 570.722656 101.71875 C 576.300781 96.378906 582.304688 91.320312 588.5625 86.679688 C 591.628906 84.410156 592.273438 80.070312 589.996094 77.003906 C 587.722656 73.9375 583.382812 73.277344 580.320312 75.5625 C 573.601562 80.542969 567.152344 85.976562 561.15625 91.71875 C 558.394531 94.355469 558.292969 98.738281 560.941406 101.503906 C 562.632812 103.269531 565.054688 103.949219 567.296875 103.503906 Z M 567.296875 103.503906 " fill-opacity="1" fill-rule="nonzero"/></g></g></g></g><g clip-path="url(#ac48542be0)"><g clip-path="url(#e583f2a02a)"><g clip-path="url(#8d594d4784)"><g clip-path="url(#e248f8fa52)"><path fill="#000000" d="M 491.539062 144.304688 L 533.390625 131.007812 C 532.417969 132.664062 531.394531 134.335938 530.46875 135.972656 C 528.582031 139.300781 529.765625 143.523438 533.082031 145.402344 C 534.582031 146.242188 536.265625 146.472656 537.832031 146.160156 C 539.738281 145.78125 541.480469 144.601562 542.503906 142.773438 C 543.949219 140.21875 545.507812 137.625 547.070312 135.03125 L 561.527344 180.542969 C 562.605469 183.9375 566.058594 185.917969 569.46875 185.238281 C 569.722656 185.1875 569.96875 185.121094 570.214844 185.046875 C 573.855469 183.882812 575.875 179.992188 574.71875 176.359375 C 574.304688 175.0625 573.898438 173.761719 573.484375 172.46875 C 572.441406 169.179688 571.394531 165.894531 570.351562 162.601562 C 568.960938 158.222656 567.574219 153.84375 566.179688 149.464844 C 564.730469 144.894531 563.273438 140.324219 561.828125 135.75 C 560.605469 131.886719 559.375 128.027344 558.144531 124.160156 C 557.371094 121.722656 556.621094 119.269531 555.800781 116.859375 C 555.214844 115.121094 554.054688 113.628906 552.429688 112.738281 C 549.210938 110.992188 545.769531 112.550781 542.589844 113.558594 C 539.246094 114.621094 535.894531 115.6875 532.542969 116.75 C 528.191406 118.132812 523.839844 119.515625 519.488281 120.898438 C 514.988281 122.328125 510.496094 123.757812 506 125.1875 C 502.222656 126.382812 498.449219 127.585938 494.671875 128.785156 C 492.476562 129.484375 490.28125 130.175781 488.085938 130.875 C 487.839844 130.953125 487.601562 131.03125 487.355469 131.105469 C 483.710938 132.269531 481.703125 136.15625 482.855469 139.792969 C 484.011719 143.449219 487.898438 145.433594 491.539062 144.304688 Z M 491.539062 144.304688 " fill-opacity="1" fill-rule="nonzero"/></g></g></g></g><g clip-path="url(#75f6f5db19)"><g clip-path="url(#246133e96a)"><g clip-path="url(#7a05ca9b95)"><g clip-path="url(#2f81900f89)"><path fill="#000000" d="M 669.878906 228.710938 C 671.371094 236.195312 678.671875 241.066406 686.15625 239.574219 L 692.941406 238.21875 L 687.527344 211.078125 L 680.742188 212.433594 C 673.265625 213.925781 668.386719 221.226562 669.878906 228.710938 Z M 669.878906 228.710938 " fill-opacity="1" fill-rule="nonzero"/></g></g></g></g><g clip-path="url(#7d2f3662d8)"><g clip-path="url(#0d0afd8865)"><g clip-path="url(#cea57cb2a3)"><g clip-path="url(#6fff2997cb)"><path fill="#000000" d="M 714.632812 276.226562 L 721.421875 274.871094 C 728.90625 273.378906 733.777344 266.078125 732.285156 258.59375 C 730.789062 251.109375 723.488281 246.238281 716.003906 247.730469 L 709.21875 249.082031 Z M 714.632812 276.226562 " fill-opacity="1" fill-rule="nonzero"/></g></g></g></g><g clip-path="url(#f0acfb67be)"><g clip-path="url(#ddd25c1bfb)"><g clip-path="url(#b0960634f2)"><g clip-path="url(#11d6642eba)"><path fill="#000000" d="M 725.449219 365.789062 C 792.792969 352.351562 836.652344 286.628906 823.21875 219.285156 C 809.78125 151.941406 744.058594 108.078125 676.714844 121.515625 C 609.367188 134.949219 565.507812 200.675781 578.945312 268.019531 C 592.378906 335.363281 658.101562 379.222656 725.449219 365.789062 Z M 782.503906 227.40625 C 781.757812 223.65625 784.191406 220.015625 787.9375 219.269531 C 791.683594 218.519531 795.328125 220.949219 796.078125 224.699219 C 806.527344 277.082031 772.414062 328.195312 720.03125 338.648438 C 716.289062 339.394531 712.640625 336.96875 711.894531 333.214844 C 711.144531 329.464844 713.578125 325.824219 717.324219 325.078125 C 762.222656 316.117188 791.464844 272.304688 782.503906 227.40625 Z M 726.886719 196.171875 C 727.632812 199.921875 725.199219 203.5625 721.453125 204.308594 L 701.097656 208.371094 L 706.511719 235.511719 L 713.296875 234.160156 C 728.265625 231.171875 742.867188 240.917969 745.855469 255.886719 C 748.839844 270.855469 739.097656 285.457031 724.128906 288.441406 L 717.34375 289.796875 L 718.695312 296.582031 C 719.445312 300.332031 717.007812 303.972656 713.265625 304.71875 C 709.519531 305.46875 705.875 303.042969 705.125 299.289062 L 703.769531 292.503906 L 683.414062 296.566406 C 679.667969 297.3125 676.023438 294.886719 675.277344 291.132812 C 674.527344 287.378906 676.960938 283.742188 680.707031 282.992188 L 701.0625 278.933594 L 695.648438 251.789062 L 688.863281 253.144531 C 673.894531 256.132812 659.292969 246.386719 656.308594 231.417969 C 653.320312 216.449219 663.066406 201.847656 678.035156 198.863281 L 684.820312 197.507812 L 683.464844 190.722656 C 682.71875 186.96875 685.152344 183.332031 688.898438 182.582031 C 692.644531 181.835938 696.289062 184.261719 697.035156 188.015625 L 698.390625 194.800781 L 718.746094 190.738281 C 722.492188 189.992188 726.136719 192.417969 726.886719 196.171875 Z M 606.085938 262.605469 C 595.632812 210.222656 629.746094 159.105469 682.128906 148.65625 C 685.875 147.910156 689.519531 150.335938 690.269531 154.089844 C 691.015625 157.839844 688.582031 161.480469 684.835938 162.226562 C 639.9375 171.183594 610.699219 214.996094 619.65625 259.898438 C 620.40625 263.648438 617.96875 267.289062 614.222656 268.035156 C 610.480469 268.78125 606.832031 266.355469 606.085938 262.605469 Z M 606.085938 262.605469 " fill-opacity="1" fill-rule="nonzero"/></g></g></g></g><g clip-path="url(#ffae18ab5b)"><path fill="#000000" d="M 931.144531 424.617188 L 868.046875 462.082031 C 890.546875 482.589844 908.074219 506.050781 922.453125 531.46875 C 936.859375 556.945312 948.058594 584.300781 957.917969 612.589844 L 1021.332031 574.933594 C 1011.46875 546.320312 1000.328125 518.742188 985.976562 493.363281 C 971.621094 467.984375 954.003906 444.699219 931.144531 424.617188 Z M 515.339844 409.6875 L 591.304688 454.789062 C 594.707031 456.804688 595.839844 461.191406 593.824219 464.59375 C 593.304688 465.476562 592.625 466.203125 591.84375 466.761719 C 589.402344 468.828125 587.015625 470.925781 584.691406 473.058594 C 589.691406 478.585938 595.121094 481.773438 602.152344 483.5625 C 611.253906 485.875 623.214844 486.128906 639.890625 485.945312 C 649.164062 476.609375 656.40625 471.414062 671.410156 467.328125 C 679.945312 465.003906 690.824219 463.144531 702.171875 461.792969 C 714.75 460.296875 728.238281 459.386719 739.894531 459.128906 C 750.847656 458.890625 760.078125 459.253906 768.296875 460.015625 C 776.707031 460.796875 783.882812 461.949219 790.679688 463.289062 C 793.570312 463.863281 796.769531 464.550781 799.945312 465.234375 C 809.722656 467.335938 819.277344 469.390625 829.53125 469.726562 C 836.261719 469.945312 843.574219 469.457031 850.183594 468.761719 C 851.339844 468.640625 852.488281 468.507812 853.625 468.371094 C 853 467.832031 852.375 467.296875 851.742188 466.761719 C 850.960938 466.203125 850.28125 465.476562 849.757812 464.59375 C 847.75 461.191406 848.878906 456.804688 852.28125 454.789062 L 928.246094 409.6875 L 928.257812 409.707031 C 930.792969 408.207031 934.105469 408.386719 936.488281 410.390625 C 962.664062 432.402344 982.480469 458.175781 998.417969 486.363281 C 1014.179688 514.230469 1026.097656 544.339844 1036.625 575.457031 C 1037.925781 578.683594 1036.707031 582.464844 1033.621094 584.285156 L 957.65625 629.394531 L 957.652344 629.386719 C 957.226562 629.636719 956.769531 629.847656 956.28125 630.011719 C 952.535156 631.261719 948.484375 629.246094 947.230469 625.503906 L 946.324219 622.835938 C 941.113281 628.59375 935.605469 633.726562 929.730469 638.324219 C 923.417969 643.265625 916.71875 647.582031 909.535156 651.386719 C 915.269531 658.28125 917.234375 666.574219 916.367188 674.585938 C 915.847656 679.390625 914.265625 684.085938 911.839844 688.285156 C 909.398438 692.515625 906.113281 696.238281 902.210938 699.0625 C 896.785156 702.996094 890.199219 705.292969 883.011719 705.003906 C 883.160156 706.324219 883.238281 707.664062 883.238281 709.019531 C 883.238281 718.738281 879.296875 727.542969 872.921875 733.910156 C 866.550781 740.277344 857.742188 744.21875 848.019531 744.21875 C 845.515625 744.21875 843.058594 743.949219 840.671875 743.433594 C 840.554688 749.226562 838.863281 754.855469 835.921875 759.753906 C 832.871094 764.835938 828.46875 769.117188 823.074219 771.949219 C 818.570312 774.3125 813.417969 775.679688 807.835938 775.679688 C 804.949219 775.679688 802.140625 775.296875 799.457031 774.589844 C 798.761719 779.621094 796.84375 784.382812 793.964844 788.464844 C 790.296875 793.664062 785.042969 797.78125 778.75 799.988281 C 775.488281 801.132812 771.992188 801.761719 768.355469 801.761719 C 760.140625 801.761719 744.671875 800.507812 727.511719 796.796875 C 717.191406 794.570312 706.214844 791.449219 695.765625 787.171875 L 688.980469 795.640625 L 688.992188 795.652344 C 683.027344 803.097656 674.554688 807.425781 665.726562 808.40625 C 656.910156 809.378906 647.707031 806.996094 640.242188 801.027344 L 640.226562 801.011719 L 640.214844 801.027344 C 633.546875 795.691406 629.375 788.351562 627.875 780.542969 C 624.109375 782.546875 620.015625 783.761719 615.789062 784.230469 C 607.070312 785.195312 597.8125 782.917969 589.875 777.820312 C 589.015625 777.269531 588.230469 776.710938 587.511719 776.144531 C 580.347656 770.507812 576.800781 762.472656 576.171875 754.15625 C 576.109375 753.3125 576.078125 752.464844 576.070312 751.613281 C 573.804688 752.324219 571.472656 752.808594 569.121094 753.066406 C 559.988281 754.074219 550.457031 751.707031 543.378906 746.378906 C 543.1875 746.234375 543.355469 746.347656 542.675781 745.804688 L 542.660156 745.820312 C 534.972656 739.699219 531.039062 731.140625 530.335938 722.40625 C 529.867188 716.609375 530.847656 710.710938 533.121094 705.390625 C 525.441406 705.445312 517.679688 702.972656 511.222656 697.808594 C 503.75 691.828125 499.40625 683.367188 498.433594 674.554688 C 497.457031 665.746094 499.839844 656.550781 505.816406 649.089844 L 508.152344 646.175781 C 506.46875 642.160156 504.785156 638.777344 502.40625 635.480469 C 500.605469 632.996094 498.335938 630.429688 495.292969 627.527344 C 493.492188 629.921875 490.300781 631.011719 487.304688 630.011719 C 486.816406 629.847656 486.363281 629.636719 485.9375 629.386719 L 485.929688 629.394531 L 409.964844 584.285156 C 406.878906 582.464844 405.660156 578.683594 406.960938 575.457031 C 417.488281 544.339844 429.410156 514.230469 445.167969 486.363281 C 461.105469 458.175781 480.921875 432.402344 507.097656 410.390625 C 509.484375 408.386719 512.792969 408.207031 515.328125 409.707031 Z M 574.414062 483.066406 C 558.148438 499.882812 544.855469 518.527344 533.578125 538.46875 C 520.390625 561.785156 509.917969 586.960938 500.652344 613.089844 C 506.707031 618.347656 510.832031 622.746094 514.003906 627.136719 C 515.609375 629.359375 516.9375 631.519531 518.121094 633.730469 L 527.398438 622.148438 L 527.386719 622.136719 C 533.351562 614.695312 541.816406 610.371094 550.640625 609.394531 C 559.449219 608.417969 568.648438 610.796875 576.109375 616.765625 L 576.144531 616.792969 L 576.15625 616.777344 L 576.195312 616.8125 L 576.207031 616.800781 L 576.527344 617.082031 C 582.25 621.792969 586.078125 627.996094 587.902344 634.6875 L 589.660156 632.484375 C 601.300781 617.886719 615.234375 614.105469 627.148438 616.960938 C 632 618.125 636.453125 620.390625 640.242188 623.480469 C 644.011719 626.558594 647.144531 630.445312 649.371094 634.871094 C 653.652344 643.371094 654.691406 653.847656 650.585938 664.324219 C 658.347656 664.144531 666.21875 666.539062 672.761719 671.640625 C 673.09375 671.878906 673.410156 672.140625 673.699219 672.429688 C 680.347656 679.078125 684.53125 687.535156 685.492188 696.207031 C 686.429688 704.667969 684.335938 713.273438 678.546875 720.617188 L 677.710938 721.675781 C 684.773438 722 691.808594 724.480469 697.746094 729.230469 C 705.21875 735.207031 709.558594 743.667969 710.539062 752.476562 C 711.40625 760.308594 709.617188 768.449219 705.011719 775.402344 C 713.472656 778.585938 722.226562 781 730.535156 782.796875 C 746.539062 786.253906 760.8125 787.421875 768.355469 787.421875 C 770.417969 787.421875 772.324219 787.09375 774.042969 786.492188 C 777.414062 785.308594 780.25 783.070312 782.253906 780.230469 C 784.25 777.398438 785.398438 773.960938 785.398438 770.378906 C 785.398438 769.671875 785.355469 768.964844 785.269531 768.261719 C 769.964844 764.238281 754.757812 758.746094 739.660156 751.804688 C 723.226562 744.242188 706.902344 734.949219 690.695312 723.921875 C 687.429688 721.695312 686.589844 717.246094 688.816406 713.980469 C 691.046875 710.71875 695.5 709.878906 698.765625 712.105469 C 714.300781 722.675781 729.933594 731.578125 745.65625 738.808594 C 761.324219 746.015625 777.078125 751.5625 792.910156 755.445312 C 794.089844 755.738281 795.128906 756.304688 795.972656 757.058594 C 797.574219 758.394531 799.417969 759.472656 801.4375 760.21875 C 803.414062 760.945312 805.570312 761.339844 807.835938 761.339844 C 811.039062 761.339844 813.929688 760.589844 816.402344 759.292969 C 819.449219 757.695312 821.929688 755.28125 823.648438 752.417969 C 825.371094 749.550781 826.332031 746.214844 826.332031 742.773438 C 826.332031 740.785156 826.007812 738.769531 825.324219 736.804688 C 789.558594 725.140625 749.894531 705.464844 706.328125 677.78125 C 702.984375 675.660156 701.996094 671.234375 704.113281 667.894531 C 706.234375 664.558594 710.664062 663.566406 714.007812 665.683594 C 757.769531 693.492188 797.34375 712.976562 832.722656 724.125 C 833.703125 724.4375 834.566406 724.9375 835.292969 725.574219 C 837.054688 726.929688 839.023438 728.007812 841.125 728.742188 C 843.242188 729.480469 845.558594 729.878906 848.019531 729.878906 C 853.78125 729.878906 859 727.546875 862.777344 723.769531 C 866.554688 719.996094 868.890625 714.78125 868.890625 709.019531 C 868.890625 707.117188 868.636719 705.277344 868.164062 703.535156 C 867.890625 702.535156 867.558594 701.578125 867.167969 700.667969 C 857.023438 697.054688 841.75 689.925781 821.355469 679.285156 C 799.078125 667.664062 770.800781 651.941406 736.519531 632.109375 C 733.101562 630.125 731.933594 625.75 733.914062 622.335938 C 735.894531 618.917969 740.273438 617.75 743.695312 619.730469 C 778.121094 639.648438 806.210938 655.28125 827.96875 666.628906 C 849.4375 677.828125 864.84375 684.9375 874.1875 687.957031 C 874.605469 688.082031 875.023438 688.242188 875.429688 688.445312 C 882.5 692.003906 889.035156 690.925781 893.804688 687.472656 C 896.113281 685.800781 898.035156 683.625 899.453125 681.171875 C 900.890625 678.6875 901.824219 675.914062 902.132812 673.074219 C 902.777344 667.113281 900.476562 660.816406 893.917969 656.476562 L 893.898438 656.464844 L 893.855469 656.4375 L 893.835938 656.425781 L 893.824219 656.417969 L 893.816406 656.410156 L 893.796875 656.398438 L 893.679688 656.316406 L 893.675781 656.3125 C 893.582031 656.242188 893.488281 656.171875 893.398438 656.101562 L 893.386719 656.089844 L 893.242188 655.972656 L 893.234375 655.964844 L 893.214844 655.953125 L 893.199219 655.933594 L 893.179688 655.921875 L 893.164062 655.90625 L 892.429688 655.289062 C 892.253906 655.152344 892.078125 655.003906 891.914062 654.851562 C 880.117188 644.90625 868.300781 634.957031 855.855469 625.019531 C 842.949219 614.714844 829.429688 604.464844 814.695312 594.332031 C 785.703125 574.386719 751.410156 554.460938 717.011719 534.535156 C 713.574219 535.140625 710.121094 535.847656 706.578125 537.0625 C 702.277344 538.539062 697.71875 540.808594 692.652344 544.648438 C 687.207031 548.777344 680.8125 554.988281 674.222656 561.386719 C 667.542969 567.878906 660.660156 574.566406 653.886719 579.9375 C 646.632812 585.695312 639.484375 589.972656 632.519531 592.335938 C 624.890625 594.917969 617.484375 595.238281 610.382812 592.773438 L 610.359375 592.765625 L 610.355469 592.773438 C 602.671875 590.105469 595.542969 584.101562 591.757812 575.648438 C 588.605469 568.625 587.761719 559.980469 590.851562 550.285156 C 596.09375 533.824219 613.027344 514.554688 626.34375 500.238281 C 615.179688 500.082031 606.257812 499.394531 598.621094 497.449219 C 588.792969 494.953125 581.257812 490.582031 574.414062 483.066406 Z M 575.542969 462.082031 L 512.441406 424.617188 C 489.582031 444.699219 471.960938 467.984375 457.609375 493.363281 C 443.257812 518.742188 432.117188 546.320312 422.253906 574.933594 L 484.480469 611.882812 C 484.738281 611.21875 485.105469 610.582031 485.578125 609.992188 C 486.015625 609.449219 486.519531 608.984375 487.066406 608.601562 C 496.589844 581.734375 507.40625 555.746094 521.136719 531.46875 C 535.507812 506.050781 553.039062 482.589844 575.542969 462.082031 Z M 548.820312 683.464844 C 549.121094 683.09375 549.453125 682.757812 549.808594 682.460938 L 569.746094 657.457031 C 569.9375 657.125 570.160156 656.800781 570.410156 656.496094 L 570.417969 656.488281 L 570.441406 656.507812 C 573.890625 652.160156 575.257812 646.773438 574.683594 641.585938 C 574.121094 636.511719 571.679688 631.648438 567.488281 628.164062 L 567.125 627.886719 L 567.140625 627.871094 L 567.117188 627.851562 L 567.121094 627.84375 C 562.777344 624.40625 557.394531 623.042969 552.210938 623.613281 C 547.011719 624.1875 542.035156 626.730469 538.539062 631.09375 L 538.53125 631.089844 L 538.472656 631.160156 L 538.464844 631.15625 L 522.277344 651.363281 C 522.058594 651.6875 521.8125 651.996094 521.542969 652.285156 L 516.96875 657.992188 C 513.472656 662.351562 512.085938 667.769531 512.664062 672.988281 C 513.242188 678.199219 515.777344 683.179688 520.132812 686.664062 C 524.492188 690.148438 529.917969 691.535156 535.136719 690.957031 C 540.339844 690.382812 545.320312 687.839844 548.820312 683.464844 Z M 648.03125 736.195312 C 648.277344 735.640625 648.597656 735.105469 648.996094 734.609375 C 649.765625 733.648438 650.578125 732.742188 651.425781 731.882812 L 667.28125 711.769531 C 670.597656 707.5625 671.792969 702.632812 671.257812 697.777344 C 670.664062 692.445312 668.023438 687.136719 663.796875 682.8125 C 659.472656 679.511719 654.183594 678.191406 649.101562 678.746094 C 644.394531 679.261719 639.882812 681.382812 636.523438 685.015625 L 596.152344 735.640625 C 595.902344 736.304688 595.546875 736.945312 595.085938 737.53125 C 594.675781 738.050781 594.3125 738.558594 593.988281 739.058594 C 591.402344 743.085938 590.09375 748.179688 590.460938 753.089844 C 590.808594 757.644531 592.65625 761.96875 596.367188 764.890625 C 596.789062 765.222656 597.207031 765.519531 597.609375 765.78125 C 602.796875 769.109375 608.730469 770.613281 614.21875 770.003906 C 619.050781 769.46875 623.5625 767.234375 626.828125 763.089844 L 631.773438 756.816406 C 632.660156 755.257812 633.683594 753.753906 634.835938 752.308594 C 635.332031 751.695312 635.910156 751.179688 636.539062 750.769531 Z M 643.644531 764.894531 C 641.898438 768.441406 641.261719 772.378906 641.6875 776.207031 C 642.261719 781.40625 644.808594 786.382812 649.179688 789.886719 L 649.171875 789.898438 C 653.527344 793.375 658.945312 794.761719 664.15625 794.179688 C 669.359375 793.609375 674.339844 791.0625 677.84375 786.695312 L 677.855469 786.703125 L 687.589844 774.558594 C 687.859375 774.132812 688.171875 773.746094 688.515625 773.398438 L 692.003906 769.042969 C 695.496094 764.683594 696.882812 759.265625 696.304688 754.042969 C 695.726562 748.835938 693.191406 743.859375 688.835938 740.375 C 684.476562 736.886719 679.050781 735.496094 673.832031 736.074219 C 669.566406 736.546875 665.449219 738.34375 662.175781 741.382812 Z M 623.917969 677.863281 C 624.039062 677.679688 624.164062 677.503906 624.300781 677.332031 L 624.433594 677.164062 C 624.574219 676.992188 624.71875 676.824219 624.871094 676.667969 L 624.886719 676.648438 L 632.667969 666.890625 C 639.839844 657.894531 640.144531 648.371094 636.59375 641.3125 C 635.265625 638.667969 633.417969 636.363281 631.21875 634.570312 C 629.035156 632.785156 626.519531 631.492188 623.839844 630.847656 C 616.929688 629.191406 608.488281 631.832031 600.871094 641.386719 L 549.007812 706.425781 L 548.691406 706.84375 C 545.664062 710.855469 544.207031 716.113281 544.625 721.285156 C 545.027344 726.296875 547.246094 731.175781 551.574219 734.621094 L 551.558594 734.636719 L 551.574219 734.644531 C 551.890625 734.902344 551.425781 734.515625 552.007812 734.953125 C 556.167969 738.085938 561.929688 739.464844 567.550781 738.84375 C 572.648438 738.277344 577.535156 736.035156 580.808594 731.925781 Z M 867.109375 480.957031 C 863.210938 481.550781 857.921875 482.320312 851.640625 482.980469 C 844.546875 483.730469 836.617188 484.25 829.082031 484.003906 C 817.390625 483.621094 807.300781 481.453125 796.976562 479.230469 C 794.117188 478.617188 791.234375 477.996094 787.9375 477.347656 C 781.324219 476.039062 774.539062 474.9375 767.007812 474.238281 C 759.285156 473.519531 750.574219 473.179688 740.171875 473.410156 C 729.21875 473.648438 716.253906 474.542969 703.851562 476.019531 C 692.972656 477.3125 682.785156 479.027344 675.167969 481.101562 C 660.074219 485.214844 654.394531 491.257812 642.222656 504.214844 L 641.707031 504.761719 C 628.882812 518.410156 609.382812 539.167969 604.464844 554.597656 C 602.554688 560.601562 602.992188 565.765625 604.808594 569.828125 C 606.90625 574.496094 610.832031 577.808594 615.0625 579.277344 L 615.0625 579.285156 C 618.949219 580.628906 623.269531 580.359375 627.925781 578.78125 C 633.253906 576.980469 638.976562 573.5 644.980469 568.742188 C 651.285156 563.734375 657.863281 557.34375 664.25 551.140625 C 671.078125 544.507812 677.699219 538.074219 684.027344 533.285156 C 690.566406 528.320312 696.421875 525.40625 701.925781 523.515625 C 707.320312 521.660156 712.25 520.824219 717.179688 519.988281 C 718.761719 519.730469 720.445312 519.992188 721.941406 520.859375 L 722.214844 521.019531 C 757.457031 541.433594 792.691406 561.84375 822.820312 582.574219 C 838 593.015625 851.742188 603.425781 864.765625 613.824219 C 876.175781 622.933594 887.082031 632.066406 897.925781 641.207031 C 906.324219 637.1875 913.941406 632.539062 920.933594 627.066406 C 928.121094 621.441406 934.703125 614.910156 940.84375 607.265625 C 932.09375 583.21875 922.210938 560.046875 910.007812 538.46875 C 898.257812 517.691406 884.324219 498.320312 867.109375 480.957031 Z M 867.109375 480.957031 " fill-opacity="1" fill-rule="nonzero"/></g></svg>